<?xml version="1.0" encoding="utf-8"?>
<!-- Generator: Adobe Illustrator 26.0.3, SVG Export Plug-In . SVG Version: 6.00 Build 0)  -->
<svg version="1.1" id="Layer_2" xmlns="http://www.w3.org/2000/svg" xmlns:xlink="http://www.w3.org/1999/xlink" x="0px" y="0px"
	 viewBox="0 0 204.4 100" style="enable-background:new 0 0 204.4 100;" xml:space="preserve">
<style type="text/css">
	.st0{fill:none;stroke:#EB008B;stroke-width:0.25;stroke-miterlimit:10;}
</style>
<rect x="26.4" y="8.9" class="st0" width="15.4" height="12.3"/>
<rect x="9.3" y="21.1" class="st0" width="15.4" height="12.3"/>
<rect x="74.8" y="18.1" class="st0" width="15.4" height="12.3"/>
<rect x="74.8" y="78" class="st0" width="15.4" height="12.3"/>
<rect x="9.3" y="48.8" class="st0" width="15.4" height="12.3"/>
<rect x="7.8" y="76.4" class="st0" width="18.4" height="13.8"/>
<rect x="9.3" y="35" transform="matrix(-1.836970e-16 1 -1 -1.836970e-16 58.1097 24.1161)" class="st0" width="15.4" height="12.3"/>
<rect x="74.8" y="31.9" transform="matrix(-1.836970e-16 1 -1 -1.836970e-16 120.5509 -44.4684)" class="st0" width="15.4" height="12.3"/>
<rect x="9.3" y="62.6" transform="matrix(-1.836970e-16 1 -1 -1.836970e-16 85.7547 51.761)" class="st0" width="15.4" height="12.3"/>
<rect x="26.4" y="21.1" class="st0" width="15.4" height="12.3"/>
<rect x="26.4" y="48.8" transform="matrix(-1.836970e-16 1 -1 -1.836970e-16 89.0131 20.8576)" class="st0" width="15.4" height="12.3"/>
<rect x="24.9" y="33.4" class="st0" width="18.4" height="13.8"/>
<rect x="24.9" y="62.6" class="st0" width="18.4" height="13.8"/>
<rect x="73.3" y="45.7" class="st0" width="18.4" height="13.8"/>
<rect x="73.3" y="61.8" transform="matrix(-1.836970e-16 1 -1 -1.836970e-16 151.2675 -13.7518)" class="st0" width="18.4" height="13.8"/>
<rect x="24.9" y="76.4" class="st0" width="18.4" height="13.8"/>
</svg>
