<?xml version="1.0" encoding="utf-8"?>
<!-- Generator: Adobe Illustrator 26.0.3, SVG Export Plug-In . SVG Version: 6.00 Build 0)  -->
<svg version="1.1" id="Layer_1" xmlns="http://www.w3.org/2000/svg" xmlns:xlink="http://www.w3.org/1999/xlink" x="0px" y="0px"
	 viewBox="0 0 204.36 100" style="enable-background:new 0 0 204.36 100;" xml:space="preserve">
<style type="text/css">
	.st0{fill:#D1B42B;}
</style>
<g>
	
		<rect x="2.78" y="80.56" transform="matrix(6.123234e-17 -1 1 6.123234e-17 -80.5556 91.6667)" class="st0" width="5.56" height="11.11"/>
	
		<rect x="33.33" y="72.22" transform="matrix(6.123234e-17 -1 1 6.123234e-17 -44.4387 119.4387)" class="st0" width="8.33" height="19.44"/>
	
		<rect x="9.72" y="73.61" transform="matrix(6.123234e-17 -1 1 6.123234e-17 -59.7165 95.8276)" class="st0" width="16.67" height="8.33"/>
	
		<rect x="20.83" y="54.17" transform="matrix(6.123234e-17 -1 1 6.123234e-17 -31.9444 84.7222)" class="st0" width="11.11" height="8.33"/>
	
		<rect x="12.5" y="59.72" transform="matrix(6.123234e-17 -1 1 6.123234e-17 -45.8333 79.1667)" class="st0" width="8.33" height="5.56"/>
	
		<rect x="18.06" y="26.39" transform="matrix(6.123234e-17 -1 1 6.123234e-17 -6.9444 51.3889)" class="st0" width="8.33" height="5.56"/>
	
		<rect x="69.42" y="0" transform="matrix(6.123234e-17 -1 1 6.123234e-17 69.4214 74.977)" class="st0" width="5.56" height="5.56"/>
	
		<rect x="58.33" y="0" transform="matrix(6.123234e-17 -1 1 6.123234e-17 58.3333 63.8889)" class="st0" width="5.56" height="5.56"/>
	
		<rect x="86.12" y="27.78" transform="matrix(6.123234e-17 -1 1 6.123234e-17 58.3391 119.4502)" class="st0" width="5.56" height="5.56"/>
	
		<rect x="93.06" y="4.17" transform="matrix(6.123234e-17 -1 1 6.123234e-17 90.2778 104.1667)" class="st0" width="8.33" height="5.56"/>
	<rect x="102.78" y="2.78" class="st0" width="8.33" height="5.56"/>
	<rect x="133.33" y="5.56" class="st0" width="5.56" height="5.56"/>
	<rect x="147.22" y="22.22" class="st0" width="8.33" height="5.56"/>
	<rect x="170.83" y="52.78" class="st0" width="8.33" height="5.56"/>
	<rect x="113.89" y="19.44" class="st0" width="16.67" height="11.11"/>
	<rect x="105.56" y="33.33" class="st0" width="8.33" height="5.56"/>
	<rect x="116.67" y="33.33" class="st0" width="8.33" height="11.11"/>
	
		<rect x="16.67" y="13.89" transform="matrix(6.123234e-17 -1 1 6.123234e-17 2.7778 38.8889)" class="st0" width="8.33" height="8.33"/>
	
		<rect x="8.33" y="27.78" transform="matrix(6.123234e-17 -1 1 6.123234e-17 -16.6667 44.4444)" class="st0" width="11.11" height="5.56"/>
	
		<rect x="11.11" y="2.78" transform="matrix(6.123234e-17 -1 1 6.123234e-17 11.1111 22.2222)" class="st0" width="11.11" height="5.56"/>
	
		<rect x="27.78" y="8.33" transform="matrix(6.123234e-17 -1 1 6.123234e-17 19.4444 44.4444)" class="st0" width="8.33" height="8.33"/>
	
		<rect x="30.56" y="16.67" transform="matrix(6.123234e-17 -1 1 6.123234e-17 11.1111 55.5556)" class="st0" width="5.56" height="11.11"/>
	
		<rect x="56.93" y="4.18" transform="matrix(6.123234e-17 -1 1 6.123234e-17 48.5996 70.8218)" class="st0" width="5.56" height="13.87"/>
	
		<rect x="59.7" y="27.77" transform="matrix(6.123234e-17 -1 1 6.123234e-17 29.1469 95.8136)" class="st0" width="5.56" height="11.13"/>
	
		<rect x="36.11" y="52.78" transform="matrix(6.123234e-17 -1 1 6.123234e-17 -19.4444 100)" class="st0" width="8.33" height="13.89"/>
	
		<rect x="50" y="55.56" transform="matrix(6.123234e-17 -1 1 6.123234e-17 -5.5556 113.8889)" class="st0" width="8.33" height="8.33"/>
	
		<rect x="33.33" y="27.78" transform="matrix(6.123234e-17 -1 1 6.123234e-17 5.5556 72.2222)" class="st0" width="11.11" height="11.11"/>
	
		<rect x="58.33" y="16.67" transform="matrix(6.123234e-17 -1 1 6.123234e-17 41.6667 86.1111)" class="st0" width="11.11" height="11.11"/>
	
		<rect x="61.1" y="34.73" transform="matrix(6.123234e-17 -1 1 6.123234e-17 23.5996 106.9329)" class="st0" width="8.33" height="13.87"/>
	
		<rect x="69.44" y="22.22" transform="matrix(6.123234e-17 -1 1 6.123234e-17 50 102.7778)" class="st0" width="13.89" height="8.33"/>
	
		<rect x="87.49" y="20.83" transform="matrix(6.123234e-17 -1 1 6.123234e-17 70.8276 118.0498)" class="st0" width="13.89" height="5.57"/>
	
		<rect x="43.06" y="18.06" transform="matrix(6.123234e-17 -1 1 6.123234e-17 23.6111 68.0556)" class="st0" width="5.56" height="8.33"/>
	
		<rect x="2.78" y="2.78" transform="matrix(6.123234e-17 -1 1 6.123234e-17 -8.417373e-10 13.8889)" class="st0" width="8.33" height="8.33"/>
	
		<rect x="40.27" y="68.06" transform="matrix(6.123234e-17 -1 1 6.123234e-17 -26.3946 115.2835)" class="st0" width="8.34" height="5.56"/>
	
		<rect x="48.62" y="70.84" transform="matrix(6.123234e-17 -1 1 6.123234e-17 -20.8449 126.4004)" class="st0" width="8.31" height="5.56"/>
	
		<rect x="56.94" y="70.84" transform="matrix(6.123234e-17 -1 1 6.123234e-17 -11.1423 136.1029)" class="st0" width="11.09" height="5.56"/>
	<rect x="61.11" y="61.11" class="st0" width="11.09" height="5.56"/>
	<rect x="77.79" y="59.72" class="st0" width="11.09" height="5.56"/>
	
		<rect x="81.95" y="48.62" transform="matrix(6.123234e-17 -1 1 6.123234e-17 34.7165 140.272)" class="st0" width="11.09" height="8.32"/>
	
		<rect x="172.42" y="62.51" transform="matrix(6.123234e-17 -1 1 6.123234e-17 109.9175 243.2508)" class="st0" width="8.32" height="8.32"/>
	
		<rect x="94.45" y="69.45" transform="matrix(6.123234e-17 -1 1 6.123234e-17 22.2193 175.0086)" class="st0" width="8.32" height="13.88"/>
	
		<rect x="108.34" y="76.39" transform="matrix(6.123234e-17 -1 1 6.123234e-17 30.5584 191.6638)" class="st0" width="5.55" height="8.33"/>
	
		<rect x="135.53" y="50.93" transform="matrix(6.123234e-17 -1 1 6.123234e-17 84.6045 194.788)" class="st0" width="8.33" height="8.33"/>
	
		<rect x="144.44" y="70.84" transform="matrix(6.123234e-17 -1 1 6.123234e-17 70.8276 229.1609)" class="st0" width="11.12" height="16.66"/>
	
		<rect x="161.13" y="75" transform="matrix(6.123234e-17 -1 1 6.123234e-17 83.3535 247.2424)" class="st0" width="8.33" height="13.88"/>
	
		<rect x="140.28" y="84.72" transform="matrix(6.123234e-17 -1 1 6.123234e-17 51.3889 237.5)" class="st0" width="8.33" height="16.67"/>
	
		<rect x="151.41" y="61.11" transform="matrix(6.123234e-17 -1 1 6.123234e-17 91.6782 222.2337)" class="st0" width="11.1" height="8.33"/>
	
		<rect x="140.35" y="62.77" transform="matrix(6.123234e-17 -1 1 6.123234e-17 78.3118 212.1919)" class="st0" width="9.81" height="8.33"/>
	
		<rect x="100.01" y="80.55" transform="matrix(6.123234e-17 -1 1 6.123234e-17 16.6717 191.6616)" class="st0" width="8.32" height="13.89"/>
	
		<rect x="104.16" y="90.27" transform="matrix(6.123234e-17 -1 1 6.123234e-17 12.5058 204.1609)" class="st0" width="8.34" height="11.11"/>
	
		<rect x="173.81" y="75" transform="matrix(6.123234e-17 -1 1 6.123234e-17 101.5841 259.9174)" class="st0" width="13.88" height="8.33"/>
	
		<rect x="191.87" y="61.11" transform="matrix(6.123234e-17 -1 1 6.123234e-17 126.5899 265.4673)" class="st0" width="8.32" height="16.67"/>
	<rect x="66.69" y="47.22" class="st0" width="13.87" height="8.33"/>
	<rect x="80.57" y="36.11" class="st0" width="16.66" height="8.33"/>
	<rect x="83.23" y="81.95" class="st0" width="11.09" height="5.55"/>
	<rect x="69.44" y="88.89" class="st0" width="13.87" height="11.11"/>
	<rect x="73.63" y="66.67" class="st0" width="13.88" height="11.11"/>
	
		<rect x="48.62" y="81.94" transform="matrix(6.123234e-17 -1 1 6.123234e-17 -31.9387 140.272)" class="st0" width="11.1" height="8.33"/>
	
		<rect x="61.11" y="83.33" transform="matrix(6.123234e-17 -1 1 6.123234e-17 -22.2165 149.9942)" class="st0" width="5.56" height="5.56"/>
	
		<rect x="67.99" y="81.95" transform="matrix(6.123234e-17 -1 1 6.123234e-17 -13.9569 155.4933)" class="st0" width="5.56" height="5.56"/>
	
		<rect x="66.68" y="75" transform="matrix(6.123234e-17 -1 1 6.123234e-17 -8.3218 147.2337)" class="st0" width="5.56" height="5.56"/>
</g>
</svg>
