<?xml version="1.0" encoding="utf-8"?>
<!-- Generator: Adobe Illustrator 26.0.3, SVG Export Plug-In . SVG Version: 6.00 Build 0)  -->
<svg version="1.1" id="Layer_1" xmlns="http://www.w3.org/2000/svg" xmlns:xlink="http://www.w3.org/1999/xlink" x="0px" y="0px"
	 viewBox="0 0 204.4 100" style="enable-background:new 0 0 204.4 100;" xml:space="preserve">
<style type="text/css">
	.st0{fill:#D1B42B;}
</style>
<g>
	<rect x="0" y="83.3" class="st0" width="11.1" height="5.6"/>
	<rect x="13.9" y="69.4" class="st0" width="8.3" height="16.7"/>
	<rect x="22.2" y="52.8" class="st0" width="8.3" height="11.1"/>
	<rect x="13.9" y="58.3" class="st0" width="5.6" height="8.3"/>
	<rect x="19.4" y="25" class="st0" width="5.6" height="8.3"/>
	<rect x="69.4" y="0" class="st0" width="5.6" height="5.6"/>
	<rect x="86.1" y="27.8" class="st0" width="5.6" height="5.6"/>
	<rect x="94.4" y="2.8" class="st0" width="5.6" height="8.3"/>
	<rect x="102.8" y="2.8" class="st0" width="8.3" height="5.6"/>
	<rect x="147.2" y="22.2" class="st0" width="8.3" height="5.6"/>
	<rect x="105.6" y="33.3" class="st0" width="8.3" height="5.6"/>
	<rect x="16.7" y="13.9" class="st0" width="8.3" height="8.3"/>
	<rect x="11.1" y="25" class="st0" width="5.6" height="11.1"/>
	<rect x="13.9" y="0" class="st0" width="5.6" height="11.1"/>
	<rect x="72.2" y="19.4" class="st0" width="8.3" height="13.9"/>
	<rect x="91.7" y="16.7" class="st0" width="5.6" height="13.9"/>
	<rect x="2.8" y="2.8" class="st0" width="8.3" height="8.3"/>
	<rect x="77.8" y="59.7" class="st0" width="11.1" height="5.6"/>
	<rect x="83.3" y="47.2" class="st0" width="8.3" height="11.1"/>
	<rect x="91.7" y="72.2" class="st0" width="13.9" height="8.3"/>
	<rect x="106.9" y="77.8" class="st0" width="8.3" height="5.6"/>
	<rect x="141.7" y="73.6" class="st0" width="16.7" height="11.1"/>
	<rect x="158.4" y="77.8" class="st0" width="13.9" height="8.3"/>
	<rect x="152.8" y="59.7" class="st0" width="8.3" height="11.1"/>
	<rect x="141.1" y="62" class="st0" width="8.3" height="9.8"/>
	<rect x="97.2" y="83.3" class="st0" width="13.9" height="8.3"/>
	<rect x="102.8" y="91.7" class="st0" width="11.1" height="8.3"/>
	<rect x="66.7" y="47.2" class="st0" width="13.9" height="8.3"/>
	<rect x="80.6" y="36.1" class="st0" width="16.7" height="8.3"/>
	<rect x="83.2" y="82" class="st0" width="11.1" height="5.6"/>
	<rect x="69.4" y="88.9" class="st0" width="13.9" height="11.1"/>
	<rect x="73.6" y="66.7" class="st0" width="13.9" height="11.1"/>
	<rect x="68" y="81.9" class="st0" width="5.6" height="5.6"/>
	<rect x="66.7" y="75" class="st0" width="5.6" height="5.6"/>
</g>
</svg>
