<?xml version="1.0" encoding="utf-8"?>
<!-- Generator: Adobe Illustrator 26.0.3, SVG Export Plug-In . SVG Version: 6.00 Build 0)  -->
<svg version="1.1" id="Layer_1" xmlns="http://www.w3.org/2000/svg" xmlns:xlink="http://www.w3.org/1999/xlink" x="0px" y="0px"
	 viewBox="0 0 327.2 161.4" style="enable-background:new 0 0 327.2 161.4;" xml:space="preserve">
<style type="text/css">
	.st0{fill:#D1B300;}
	.st1{fill:#F15A24;}
</style>
<rect x="4.5" y="130.2" transform="matrix(6.123234e-17 -1 1 6.123234e-17 -130.2241 148.2241)" class="st0" width="9" height="18"/>
<rect x="159.8" y="86.7" transform="matrix(6.123234e-17 -1 1 6.123234e-17 64.2427 268.7895)" class="st0" width="13.3" height="31.1"/>
<rect x="15.8" y="119.2" transform="matrix(6.123234e-17 -1 1 6.123234e-17 -96.7704 154.9926)" class="st0" width="26.7" height="13.3"/>
<rect x="33.6" y="88.1" transform="matrix(6.123234e-17 -1 1 6.123234e-17 -52.3352 137.2241)" class="st0" width="17.8" height="13.3"/>
<rect x="20.2" y="97" transform="matrix(6.123234e-17 -1 1 6.123234e-17 -74.5574 128.3352)" class="st0" width="13.3" height="8.9"/>
<rect x="29.1" y="43.7" transform="matrix(6.123234e-17 -1 1 6.123234e-17 -12.3352 83.8908)" class="st0" width="13.3" height="8.9"/>
<rect x="111.3" y="1.4" transform="matrix(6.123234e-17 -1 1 6.123234e-17 109.8502 121.6317)" class="st0" width="8.9" height="8.9"/>
<rect x="93.6" y="1.4" transform="matrix(6.123234e-17 -1 1 6.123234e-17 92.1092 103.8908)" class="st0" width="8.9" height="8.9"/>
<rect x="149.1" y="8.1" transform="matrix(6.123234e-17 -1 1 6.123234e-17 143.2204 168.3352)" class="st0" width="13.3" height="8.9"/>
<rect x="164.7" y="5.9" class="st0" width="13.3" height="8.9"/>
<rect x="209.1" y="14.8" class="st0" width="13.3" height="8.9"/>
<rect x="275.8" y="1.4" class="st1" width="33.7" height="20.2"/>
<rect x="182.4" y="32.6" class="st0" width="26.7" height="17.8"/>
<rect x="244.7" y="19.2" class="st1" width="26.7" height="17.8"/>
<rect x="249.1" y="41.4" class="st1" width="13.3" height="17.8"/>
<rect x="169.1" y="54.8" class="st0" width="13.3" height="8.9"/>
<rect x="186.9" y="54.8" class="st0" width="13.3" height="17.8"/>
<rect x="26.9" y="23.7" transform="matrix(6.123234e-17 -1 1 6.123234e-17 3.2204 63.8908)" class="st0" width="13.3" height="13.3"/>
<rect x="13.6" y="45.9" transform="matrix(6.123234e-17 -1 1 6.123234e-17 -27.8908 72.7796)" class="st0" width="17.8" height="8.9"/>
<rect x="18" y="5.9" transform="matrix(6.123234e-17 -1 1 6.123234e-17 16.5537 37.2241)" class="st0" width="17.8" height="8.9"/>
<rect x="44.7" y="14.8" transform="matrix(6.123234e-17 -1 1 6.123234e-17 29.887 72.7796)" class="st0" width="13.3" height="13.3"/>
<rect x="49.1" y="28.1" transform="matrix(6.123234e-17 -1 1 6.123234e-17 16.5537 90.5574)" class="st0" width="8.9" height="17.8"/>
<rect x="91.3" y="8.1" transform="matrix(6.123234e-17 -1 1 6.123234e-17 76.5353 114.9834)" class="st0" width="8.9" height="22.2"/>
<rect x="95.7" y="45.9" transform="matrix(6.123234e-17 -1 1 6.123234e-17 45.411 154.9703)" class="st0" width="8.9" height="17.8"/>
<rect x="58" y="85.9" transform="matrix(6.123234e-17 -1 1 6.123234e-17 -32.3352 161.6685)" class="st0" width="13.3" height="22.2"/>
<rect x="80.2" y="90.3" transform="matrix(6.123234e-17 -1 1 6.123234e-17 -10.113 183.8908)" class="st0" width="13.3" height="13.3"/>
<rect x="53.6" y="45.9" transform="matrix(6.123234e-17 -1 1 6.123234e-17 7.6648 117.2241)" class="st0" width="17.8" height="17.8"/>
<rect x="93.6" y="28.1" transform="matrix(6.123234e-17 -1 1 6.123234e-17 65.4426 139.4463)" class="st0" width="17.8" height="17.8"/>
<rect x="98" y="57" transform="matrix(6.123234e-17 -1 1 6.123234e-17 36.5353 172.7612)" class="st0" width="13.3" height="22.2"/>
<rect x="111.3" y="37" transform="matrix(6.123234e-17 -1 1 6.123234e-17 78.7759 166.113)" class="st0" width="22.2" height="13.3"/>
<rect x="140.2" y="34.8" transform="matrix(6.123234e-17 -1 1 6.123234e-17 112.1 190.5482)" class="st0" width="22.2" height="8.9"/>
<rect x="69.1" y="30.3" transform="matrix(6.123234e-17 -1 1 6.123234e-17 36.5537 110.5574)" class="st0" width="8.9" height="13.3"/>
<rect x="2.3" y="4.9" transform="matrix(6.123234e-17 -1 1 6.123234e-17 -2.556 20.556)" class="st0" width="13.3" height="13.3"/>
<rect x="171" y="80.1" transform="matrix(6.123234e-17 -1 1 6.123234e-17 93.1132 262.1412)" class="st0" width="13.4" height="8.9"/>
<rect x="184.3" y="84.5" transform="matrix(6.123234e-17 -1 1 6.123234e-17 101.9928 279.9282)" class="st0" width="13.3" height="8.9"/>
<rect x="197.6" y="84.5" transform="matrix(6.123234e-17 -1 1 6.123234e-17 117.5169 295.4522)" class="st0" width="17.7" height="8.9"/>
<rect x="98" y="99.2" class="st0" width="17.7" height="8.9"/>
<rect x="124.7" y="97" class="st0" width="17.7" height="8.9"/>
<rect x="131.3" y="79.2" transform="matrix(6.123234e-17 -1 1 6.123234e-17 54.3223 226.1038)" class="st0" width="17.7" height="13.3"/>
<rect x="276.1" y="101.5" transform="matrix(6.123234e-17 -1 1 6.123234e-17 174.6438 390.8698)" class="st0" width="13.3" height="13.3"/>
<rect x="151.3" y="112.6" transform="matrix(6.123234e-17 -1 1 6.123234e-17 34.3269 281.6823)" class="st0" width="13.3" height="22.2"/>
<rect x="173.6" y="123.7" transform="matrix(6.123234e-17 -1 1 6.123234e-17 47.6694 308.3306)" class="st0" width="8.9" height="13.3"/>
<rect x="217.1" y="82.9" transform="matrix(6.123234e-17 -1 1 6.123234e-17 134.1432 313.3294)" class="st0" width="13.3" height="13.3"/>
<rect x="231.3" y="114.8" transform="matrix(6.123234e-17 -1 1 6.123234e-17 112.1 368.326)" class="st0" width="17.8" height="26.6"/>
<rect x="258" y="121.5" transform="matrix(6.123234e-17 -1 1 6.123234e-17 132.1415 397.2563)" class="st0" width="13.3" height="22.2"/>
<rect x="224.7" y="137" transform="matrix(6.123234e-17 -1 1 6.123234e-17 80.9981 381.6685)" class="st0" width="13.3" height="26.7"/>
<rect x="242.5" y="99.2" transform="matrix(6.123234e-17 -1 1 6.123234e-17 145.461 357.2425)" class="st0" width="17.8" height="13.3"/>
<rect x="225.7" y="100.1" transform="matrix(6.123234e-17 -1 1 6.123234e-17 126.7585 340.3526)" class="st0" width="15.7" height="13.3"/>
<rect x="160.2" y="130.3" transform="matrix(6.123234e-17 -1 1 6.123234e-17 25.4506 308.3271)" class="st0" width="13.3" height="22.2"/>
<rect x="166.9" y="145.9" transform="matrix(6.123234e-17 -1 1 6.123234e-17 18.7851 328.326)" class="st0" width="13.4" height="17.8"/>
<rect x="278.3" y="121.4" transform="matrix(6.123234e-17 -1 1 6.123234e-17 161.3105 417.5365)" class="st0" width="22.2" height="13.3"/>
<rect x="307.2" y="99.2" transform="matrix(6.123234e-17 -1 1 6.123234e-17 201.3197 426.4161)" class="st0" width="13.3" height="26.7"/>
<rect x="106.9" y="77" class="st0" width="22.2" height="13.3"/>
<rect x="133.4" y="132.6" class="st0" width="17.7" height="8.9"/>
<rect x="111.3" y="143.7" class="st0" width="22.2" height="17.8"/>
<rect x="118" y="108.1" class="st0" width="22.2" height="17.8"/>
<rect x="184.3" y="102.3" transform="matrix(6.123234e-17 -1 1 6.123234e-17 84.2427 302.1228)" class="st0" width="17.8" height="13.3"/>
<rect x="204.3" y="104.5" transform="matrix(6.123234e-17 -1 1 6.123234e-17 99.7983 317.6783)" class="st0" width="8.9" height="8.9"/>
<rect x="109" y="132.6" transform="matrix(6.123234e-17 -1 1 6.123234e-17 -23.5552 250.4578)" class="st0" width="8.9" height="8.9"/>
<rect x="106.9" y="121.4" transform="matrix(6.123234e-17 -1 1 6.123234e-17 -14.5574 237.2241)" class="st0" width="8.9" height="8.9"/>
<rect x="81.8" y="107" transform="matrix(0.7071 -0.7071 0.7071 0.7071 -55.4369 93.5394)" class="st0" width="6.9" height="13.4"/>
<rect x="91.2" y="116.5" transform="matrix(0.7071 -0.7071 0.7071 0.7071 -59.3546 102.9977)" class="st0" width="6.9" height="13.4"/>
<rect x="139.4" y="49.6" transform="matrix(0.7071 0.7071 -0.7071 0.7071 81.6611 -84.5336)" class="st0" width="6.9" height="13.4"/>
<rect x="130" y="59.1" transform="matrix(0.7071 0.7071 -0.7071 0.7071 85.5788 -75.0753)" class="st0" width="6.9" height="13.4"/>
<rect x="158.3" y="30.7" transform="matrix(0.7071 0.7071 -0.7071 0.7071 73.8256 -103.4501)" class="st0" width="6.9" height="13.4"/>
<rect x="148.9" y="40.2" transform="matrix(0.7071 0.7071 -0.7071 0.7071 77.7433 -93.9919)" class="st0" width="6.9" height="13.4"/>
<rect x="177.3" y="11.8" transform="matrix(0.7071 0.7071 -0.7071 0.7071 65.9901 -122.3667)" class="st0" width="6.9" height="13.4"/>
<rect x="167.8" y="21.2" transform="matrix(0.7071 0.7071 -0.7071 0.7071 69.9078 -112.9084)" class="st0" width="6.9" height="13.4"/>
<rect x="186.7" y="2.3" transform="matrix(0.7071 0.7071 -0.7071 0.7071 62.0723 -131.825)" class="st0" width="6.9" height="13.4"/>
<rect x="146.4" y="56.6" transform="matrix(0.7071 0.7071 -0.7071 0.7071 88.5956 -87.406)" class="st0" width="6.9" height="13.4"/>
<rect x="136.9" y="66" transform="matrix(0.7071 0.7071 -0.7071 0.7071 92.5134 -77.9477)" class="st0" width="6.9" height="13.4"/>
<rect x="165.3" y="37.6" transform="matrix(0.7071 0.7071 -0.7071 0.7071 80.7602 -106.3225)" class="st0" width="6.9" height="13.4"/>
<rect x="155.8" y="47.1" transform="matrix(0.7071 0.7071 -0.7071 0.7071 84.6779 -96.8643)" class="st0" width="6.9" height="13.4"/>
<rect x="184.2" y="18.7" transform="matrix(0.7071 0.7071 -0.7071 0.7071 72.9247 -125.2391)" class="st0" width="6.9" height="13.4"/>
<rect x="174.7" y="28.2" transform="matrix(0.7071 0.7071 -0.7071 0.7071 76.8424 -115.7808)" class="st0" width="6.9" height="13.4"/>
<rect x="193.7" y="9.3" transform="matrix(0.7071 0.7071 -0.7071 0.7071 69.0069 -134.6973)" class="st0" width="6.9" height="13.4"/>
<rect x="53.4" y="135.3" transform="matrix(0.7071 -0.7071 0.7071 0.7071 -83.7751 81.8013)" class="st0" width="6.9" height="13.4"/>
<rect x="62.9" y="144.8" transform="matrix(0.7071 -0.7071 0.7071 0.7071 -87.6928 91.2596)" class="st0" width="6.9" height="13.4"/>
<rect x="63" y="107" transform="matrix(0.7071 0.7071 -0.7071 0.7071 99.863 -13.6617)" class="st0" width="6.9" height="13.4"/>
<rect x="53.5" y="116.5" transform="matrix(0.7071 0.7071 -0.7071 0.7071 103.7808 -4.2034)" class="st0" width="6.9" height="13.4"/>
<rect x="91.2" y="135.2" transform="matrix(0.7071 0.7071 -0.7071 0.7071 128.0657 -25.3436)" class="st0" width="6.9" height="13.4"/>
<rect x="130.5" y="-1.8" transform="matrix(-2.637278e-13 -1 1 -2.637278e-13 129.0832 138.8629)" class="st0" width="6.9" height="13.4"/>
<rect x="119.4" y="2.8" transform="matrix(-0.7071 -0.7071 0.7071 -0.7071 202.931 103.0808)" class="st0" width="6.9" height="13.4"/>
<rect x="114.7" y="14" transform="matrix(-1 -4.463553e-11 4.463553e-11 -1 236.3842 41.3417)" class="st0" width="6.9" height="13.4"/>
<rect x="119.4" y="25.1" transform="matrix(-0.7071 0.7071 -0.7071 -0.7071 232.164 -32.5062)" class="st0" width="6.9" height="13.4"/>
<rect x="130.5" y="29.8" transform="matrix(-8.953567e-11 1 -1 -8.953567e-11 170.4249 -97.5213)" class="st0" width="6.9" height="13.4"/>
<rect x="141.7" y="25.1" transform="matrix(0.7071 0.7071 -0.7071 0.7071 65.0151 -93.3011)" class="st0" width="6.9" height="13.4"/>
<rect x="146.3" y="14" class="st0" width="6.9" height="13.4"/>
<rect x="141.7" y="2.8" transform="matrix(0.7071 -0.7071 0.7071 0.7071 35.7822 105.4098)" class="st0" width="6.9" height="13.4"/>
<rect x="77.9" y="49.6" transform="matrix(0.7071 -0.7071 0.7071 0.7071 -15.9995 73.9874)" class="st0" width="6.9" height="13.4"/>
<rect x="223.4" y="27.9" transform="matrix(-5.284049e-13 -1 1 -5.284049e-13 192.264 261.5138)" class="st0" width="6.9" height="13.4"/>
<rect x="212.3" y="32.6" transform="matrix(-0.7071 -0.7071 0.7071 -0.7071 340.5224 219.5431)" class="st0" width="6.9" height="13.4"/>
<rect x="207.7" y="43.7" transform="matrix(-1 -4.463553e-11 4.463553e-11 -1 422.2159 100.8118)" class="st0" width="6.9" height="13.4"/>
<rect x="212.3" y="54.9" transform="matrix(-0.7071 0.7071 -0.7071 -0.7071 411.8071 -47.4466)" class="st0" width="6.9" height="13.4"/>
<rect x="223.4" y="59.5" transform="matrix(-8.927099e-11 1 -1 -8.927099e-11 293.0757 -160.702)" class="st0" width="6.9" height="13.4"/>
<rect x="234.6" y="54.9" transform="matrix(0.7071 0.7071 -0.7071 0.7071 113.2554 -150.2933)" class="st0" width="6.9" height="13.4"/>
<rect x="239.2" y="43.7" class="st0" width="6.9" height="13.4"/>
<rect x="234.6" y="32.6" transform="matrix(0.7071 -0.7071 0.7071 0.7071 41.9707 179.8204)" class="st0" width="6.9" height="13.4"/>
<rect x="303.4" y="59" transform="matrix(6.123234e-17 -1 1 6.123234e-17 241.2235 372.5542)" class="st0" width="6.9" height="13.4"/>
<rect x="292.3" y="63.6" transform="matrix(-0.7071 -0.7071 0.7071 -0.7071 455.142 329.101)" class="st0" width="6.9" height="13.4"/>
<rect x="287.7" y="74.8" transform="matrix(-1 -4.463553e-11 4.463553e-11 -1 582.2158 162.8926)" class="st0" width="6.9" height="13.4"/>
<rect x="292.3" y="85.9" transform="matrix(-0.7071 0.7071 -0.7071 -0.7071 570.3245 -51.0259)" class="st0" width="6.9" height="13.4"/>
<rect x="303.4" y="90.5" transform="matrix(-8.927099e-11 1 -1 -8.927099e-11 404.1162 -209.6616)" class="st0" width="6.9" height="13.4"/>
<rect x="314.6" y="85.9" transform="matrix(0.7071 0.7071 -0.7071 0.7071 158.6357 -197.7703)" class="st0" width="6.9" height="13.4"/>
<rect x="319.2" y="74.8" class="st0" width="6.9" height="13.4"/>
<rect x="314.6" y="63.6" transform="matrix(0.7071 -0.7071 0.7071 0.7071 43.4533 245.4804)" class="st0" width="6.9" height="13.4"/>
<rect x="81.7" y="144.7" transform="matrix(0.7071 0.7071 -0.7071 0.7071 131.9834 -15.8853)" class="st0" width="6.9" height="13.4"/>
<rect x="259.5" y="61" transform="matrix(0.7071 -0.7071 0.7071 0.7071 29.1749 205.7206)" class="st0" width="6.9" height="13.4"/>
<rect x="240.7" y="79.8" transform="matrix(0.7071 -0.7071 0.7071 0.7071 10.3723 197.9323)" class="st0" width="6.9" height="13.4"/>
<rect x="240.7" y="60.9" transform="matrix(0.7071 0.7071 -0.7071 0.7071 119.3193 -152.8207)" class="st0" width="6.9" height="13.4"/>
<rect x="259.5" y="79.7" transform="matrix(0.7071 0.7071 -0.7071 0.7071 138.1254 -160.6104)" class="st0" width="6.9" height="13.4"/>
</svg>
